<svg id="visual" viewBox="0 0 900 600" width="900" height="600" xmlns="http://www.w3.org/2000/svg" xmlns:xlink="http://www.w3.org/1999/xlink" version="1.1"><path d="M0 169L13.7 160C27.3 151 54.7 133 82 126C109.3 119 136.7 123 163.8 131C191 139 218 151 245.2 155C272.3 159 299.7 155 327 171C354.3 187 381.7 223 409 223C436.3 223 463.7 187 491 197C518.3 207 545.7 263 573 276C600.3 289 627.7 259 654.8 250C682 241 709 253 736.2 255C763.3 257 790.7 249 818 235C845.3 221 872.7 201 886.3 191L900 181L900 0L886.3 0C872.7 0 845.3 0 818 0C790.7 0 763.3 0 736.2 0C709 0 682 0 654.8 0C627.7 0 600.3 0 573 0C545.7 0 518.3 0 491 0C463.7 0 436.3 0 409 0C381.7 0 354.3 0 327 0C299.7 0 272.3 0 245.2 0C218 0 191 0 163.8 0C136.7 0 109.3 0 82 0C54.7 0 27.3 0 13.7 0L0 0Z" fill="#513eb8"></path><path d="M0 421L13.7 410C27.3 399 54.7 377 82 355C109.3 333 136.7 311 163.8 306C191 301 218 313 245.2 322C272.3 331 299.7 337 327 344C354.3 351 381.7 359 409 352C436.3 345 463.7 323 491 335C518.3 347 545.7 393 573 400C600.3 407 627.7 375 654.8 360C682 345 709 347 736.2 346C763.3 345 790.7 341 818 331C845.3 321 872.7 305 886.3 297L900 289L900 179L886.3 189C872.7 199 845.3 219 818 233C790.7 247 763.3 255 736.2 253C709 251 682 239 654.8 248C627.7 257 600.3 287 573 274C545.7 261 518.3 205 491 195C463.7 185 436.3 221 409 221C381.7 221 354.3 185 327 169C299.7 153 272.3 157 245.2 153C218 149 191 137 163.8 129C136.7 121 109.3 117 82 124C54.7 131 27.3 149 13.7 158L0 167Z" fill="#614dd5"></path><path d="M0 475L13.7 462C27.3 449 54.7 423 82 399C109.3 375 136.7 353 163.8 358C191 363 218 395 245.2 413C272.3 431 299.7 435 327 436C354.3 437 381.7 435 409 420C436.3 405 463.7 377 491 385C518.3 393 545.7 437 573 453C600.3 469 627.7 457 654.8 442C682 427 709 409 736.2 404C763.3 399 790.7 407 818 404C845.3 401 872.7 387 886.3 380L900 373L900 287L886.3 295C872.7 303 845.3 319 818 329C790.7 339 763.3 343 736.2 344C709 345 682 343 654.8 358C627.7 373 600.3 405 573 398C545.7 391 518.3 345 491 333C463.7 321 436.3 343 409 350C381.7 357 354.3 349 327 342C299.7 335 272.3 329 245.2 320C218 311 191 299 163.8 304C136.7 309 109.3 331 82 353C54.7 375 27.3 397 13.7 408L0 419Z" fill="#715df2"></path><path d="M0 529L13.7 526C27.3 523 54.7 517 82 508C109.3 499 136.7 487 163.8 487C191 487 218 499 245.2 513C272.3 527 299.7 543 327 542C354.3 541 381.7 523 409 512C436.3 501 463.7 497 491 503C518.3 509 545.7 525 573 531C600.3 537 627.7 533 654.8 533C682 533 709 537 736.2 530C763.3 523 790.7 505 818 499C845.3 493 872.7 499 886.3 502L900 505L900 371L886.3 378C872.7 385 845.3 399 818 402C790.7 405 763.3 397 736.2 402C709 407 682 425 654.8 440C627.7 455 600.3 467 573 451C545.7 435 518.3 391 491 383C463.7 375 436.3 403 409 418C381.7 433 354.3 435 327 434C299.7 433 272.3 429 245.2 411C218 393 191 361 163.8 356C136.7 351 109.3 373 82 397C54.7 421 27.3 447 13.7 460L0 473Z" fill="#8877f6"></path><path d="M0 601L13.7 601C27.3 601 54.7 601 82 601C109.3 601 136.7 601 163.8 601C191 601 218 601 245.2 601C272.3 601 299.7 601 327 601C354.3 601 381.7 601 409 601C436.3 601 463.7 601 491 601C518.3 601 545.7 601 573 601C600.3 601 627.7 601 654.8 601C682 601 709 601 736.2 601C763.3 601 790.7 601 818 601C845.3 601 872.7 601 886.3 601L900 601L900 503L886.3 500C872.7 497 845.3 491 818 497C790.7 503 763.3 521 736.2 528C709 535 682 531 654.8 531C627.7 531 600.3 535 573 529C545.7 523 518.3 507 491 501C463.7 495 436.3 499 409 510C381.7 521 354.3 539 327 540C299.7 541 272.3 525 245.2 511C218 497 191 485 163.8 485C136.7 485 109.3 497 82 506C54.7 515 27.3 521 13.7 524L0 527Z" fill="#9e90fa"></path></svg>